<svg width="446" height="72" viewBox="0 0 446 72" fill="none" xmlns="http://www.w3.org/2000/svg">
<path d="M0.458008 1.64014H30.8277V15.2702H16.316V29.2098H28.9633V42.51H16.316V70.3624H0.458008V1.64014Z" fill="white"/>
<path d="M112.645 1.63965H103.229V70.3619H112.645V1.63965Z" fill="white"/>
<path d="M134.453 1.63965H139.118L161.006 55.0021V1.63965H166.607V70.3619H162.023L140.046 16.4005V70.3619H134.453V1.63965Z" fill="white"/>
<path d="M196.519 4.69547H182.102V1.63965H213.831V4.69547H199.757V70.3619H196.519V4.69547Z" fill="white"/>
<path d="M232.489 1.63965H235.72V67.3869H256.512V70.3619H232.489V1.63965Z" fill="white"/>
<path d="M280.332 1.63965H273.884V70.3619H280.332V1.63965Z" fill="white"/>
<path d="M303.109 1.63965H310.311L329.831 47.2817V1.63965H338.473V70.3619H331.695L311.927 23.441V70.3619H303.109V1.63965Z" fill="white"/>
<path d="M360.369 1.63965H389.218V13.1562H372.841V28.8862H385.738V39.6422H372.841V59.1012H389.386V70.3619H360.369V1.63965Z" fill="white"/>
<path fill-rule="evenodd" clip-rule="evenodd" d="M57.5804 1.63965H70.9816L84.726 70.3619H73.1018L70.3893 54.4972H58.4285L55.6284 70.3619H43.8359L57.5804 1.63965ZM60.1585 43.6895H68.5718L64.3651 17.6726L60.1585 43.6895Z" fill="white"/>
<path d="M406.433 18.6898C406.293 22.5298 407.053 25.8698 408.713 28.6998C410.433 31.4698 412.883 34.0998 416.063 36.5898C416.063 36.5898 420.863 40.4798 422.473 41.7698C425.263 43.9998 431.103 47.8598 431.103 52.6398C430.983 55.9798 429.423 58.9398 425.843 58.9398C419.923 58.9398 418.843 51.9798 418.933 47.6298H405.773C405.013 53.5098 408.583 71.3698 425.303 71.3698C443.543 71.3698 445.413 55.6398 445.523 52.6198C445.683 48.1998 444.783 44.3898 442.823 41.1598C440.863 37.9398 433.293 31.2798 429.713 28.4498C422.983 23.1198 422.013 19.4898 422.093 17.1698C422.163 15.1798 423.323 11.8298 427.483 11.8298C429.493 11.8298 433.243 13.1298 432.123 21.8398L443.903 21.8298C445.523 9.09095 437.518 0.630371 426.071 0.630371C412.931 0.630371 406.713 10.5798 406.433 18.6898Z" fill="white"/>
</svg>
